# xmcd
#
# Track frame offsets:
#	150
#	17852
#	35051
#	51909
#	78596
#	93708
#	108812
#	123819
#	150677
#
# Disc length: 2227 seconds
#
# Revision: 3
# Processed by: cddbd v1.5.2PL0 Copyright (c) Steve Scherf et al.
# Submitted via: audiograbber 1.83.01
#
DISCID=6e08b109
DTITLE=Dolorean - Violence In The Snowy Fields
DYEAR=2004
DGENRE=Indie Folk Pop
TTITLE0=The Search
TTITLE1=Put You To Sleep
TTITLE2=Dying In Time
TTITLE3=Holding On
TTITLE4=To Destruction
TTITLE5=Violence In The Snowy Fields
TTITLE6=My Grey Life (Second Chances)
TTITLE7=The Righteous Shall Destroy The Precious
TTITLE8=In The Fall
EXTD=
EXTT0=
EXTT1=
EXTT2=
EXTT3=
EXTT4=
EXTT5=
EXTT6=
EXTT7=
EXTT8=
PLAYORDER=
